<svg id="Button_Cancel_Idle" xmlns="http://www.w3.org/2000/svg" width="36" height="36" viewBox="0 0 36 36">
  <rect id="Frame" width="36" height="36" fill="none"/>
  <g id="Design">
    <path id="Path_1" data-name="Path 1" d="M26.67,4.83a1.125,1.125,0,0,0-1.592,0L15.75,14.158,6.6,5.008A1.125,1.125,0,0,0,5.009,6.6l9.15,9.15-9.33,9.33a1.125,1.125,0,1,0,1.59,1.592l9.33-9.33,9.33,9.33a1.125,1.125,0,1,0,1.59-1.592l-9.327-9.33,9.33-9.33a1.125,1.125,0,0,0,0-1.59Z" transform="translate(2.25 2.25)" fill="#edeff0"/>
    <path id="Path_2" data-name="Path 2" d="M31.875,0H4.125A4.128,4.128,0,0,0,0,4.125v27.75A4.128,4.128,0,0,0,4.125,36h27.75A4.128,4.128,0,0,0,36,31.875V4.125A4.128,4.128,0,0,0,31.875,0ZM33.75,31.875a1.878,1.878,0,0,1-1.875,1.875H4.125A1.878,1.878,0,0,1,2.25,31.875V4.125A1.878,1.878,0,0,1,4.125,2.25h27.75A1.878,1.878,0,0,1,33.75,4.125Z" fill="#edeff0"/>
  </g>
</svg>
