<svg id="Button_FocusNearLarge_Idle" xmlns="http://www.w3.org/2000/svg" width="64" height="28" viewBox="0 0 64 28">
  <rect id="Frame" width="64" height="28" fill="none"/>
  <g id="Design" transform="translate(-152.5 -335)">
    <g id="Rectangle" transform="translate(152.5 335)" fill="#0e1011" stroke="#1d1d1f" stroke-width="2">
      <path d="M10,0H64a0,0,0,0,1,0,0V28a0,0,0,0,1,0,0H10A10,10,0,0,1,0,18V10A10,10,0,0,1,10,0Z" stroke="none"/>
      <path d="M10,1H62a1,1,0,0,1,1,1V26a1,1,0,0,1-1,1H10a9,9,0,0,1-9-9V10A9,9,0,0,1,10,1Z" fill="none"/>
    </g>
    <g id="Path_1" data-name="Path 1" transform="translate(170.5 341)" fill="none">
      <path d="M12,0V16L0,8Z" stroke="none"/>
      <path d="M 11 1.86851692199707 L 1.802775382995605 8 L 11 14.13148307800293 L 11 1.86851692199707 M 12 0 L 12 16 L 0 8 L 12 0 Z" stroke="none" fill="#3498db"/>
    </g>
    <g id="Path_2" data-name="Path 2" transform="translate(186.5 341)" fill="none">
      <path d="M12,0V16L0,8Z" stroke="none"/>
      <path d="M 11 1.86851692199707 L 1.802775382995605 8 L 11 14.13148307800293 L 11 1.86851692199707 M 12 0 L 12 16 L 0 8 L 12 0 Z" stroke="none" fill="#3498db"/>
    </g>
  </g>
</svg>
