<svg id="Button_Plus_Idle" xmlns="http://www.w3.org/2000/svg" width="128" height="28" viewBox="0 0 128 28">
  <rect id="Frame" width="128" height="28" fill="none"/>
  <g id="Design">
    <g id="Rectangle_1" data-name="Rectangle 1" fill="#0e1011" stroke="#1d1d1f" stroke-width="2">
      <path d="M0,0H118a10,10,0,0,1,10,10v8a10,10,0,0,1-10,10H0a0,0,0,0,1,0,0V0A0,0,0,0,1,0,0Z" stroke="none"/>
      <path d="M2,1H118a9,9,0,0,1,9,9v8a9,9,0,0,1-9,9H2a1,1,0,0,1-1-1V2A1,1,0,0,1,2,1Z" fill="none"/>
    </g>
    <rect id="Rectangle_2" data-name="Rectangle 2" width="16" height="2" transform="translate(56 13)" fill="#3498db"/>
    <rect id="Rectangle_3" data-name="Rectangle 3" width="2" height="16" transform="translate(63 6)" fill="#3498db"/>
  </g>
</svg>
