<svg id="Button_Settings_Pressed" xmlns="http://www.w3.org/2000/svg" width="36" height="36" viewBox="0 0 36 36">
  <rect id="Frame" width="36" height="36" fill="none"/>
  <g id="Design" transform="translate(-0.5 0)">
    <path id="Path_1" data-name="Path 1" d="M166.672,158.481a7.452,7.452,0,1,1-7.447-7.2A7.327,7.327,0,0,1,166.672,158.481Zm0,0" transform="translate(-140.107 -140.481)" fill="#3e505b"/>
    <path id="Path_2" data-name="Path 2" d="M353.479,110.461a4.769,4.769,0,0,0,2.483,4.153v-3.553h4.965v3.553a4.691,4.691,0,0,0,1.834-6.516,4.862,4.862,0,0,0-1.834-1.773V93.013a4.707,4.707,0,0,0,1.82-6.546,4.878,4.878,0,0,0-1.82-1.76v3.553h-4.965V84.708a4.707,4.707,0,0,0-1.82,6.546,4.879,4.879,0,0,0,1.82,1.76V106.3a4.77,4.77,0,0,0-2.483,4.157Zm0,0" transform="translate(-326.914 -78.66)" fill="#3e505b"/>
    <path id="Path_3" data-name="Path 3" d="M22.686,31.366a.6.6,0,0,0-.465.581V34.8H16.015V31.947a.6.6,0,0,0-.466-.581,14.42,14.42,0,0,1-3.679-1.478.637.637,0,0,0-.755.093L9.024,32,4.636,27.758,6.727,25.74a.585.585,0,0,0,.095-.73A13.472,13.472,0,0,1,5.294,21.45a.617.617,0,0,0-.6-.45H1.741V15H4.692a.617.617,0,0,0,.6-.45,13.472,13.472,0,0,1,1.528-3.558.585.585,0,0,0-.095-.73L4.636,8.242,9.024,4l2.091,2.021a.637.637,0,0,0,.755.092,14.46,14.46,0,0,1,3.679-1.478.6.6,0,0,0,.466-.581V1.2h6.206V4.054a.6.6,0,0,0,.466.581A14.458,14.458,0,0,1,26.02,5.921l.6-1.049A15.672,15.672,0,0,0,23.462,3.6V.6a.61.61,0,0,0-.62-.6H15.394a.61.61,0,0,0-.621.6v3a15.7,15.7,0,0,0-3.115,1.252l-2.2-2.121a.636.636,0,0,0-.878,0L3.319,7.818a.586.586,0,0,0,0,.849l2.195,2.121a14.686,14.686,0,0,0-1.3,3.013H1.12a.611.611,0,0,0-.62.6v7.2a.61.61,0,0,0,.62.6h3.1a14.686,14.686,0,0,0,1.3,3.013L3.319,27.334a.586.586,0,0,0,0,.849l5.266,5.092a.636.636,0,0,0,.877,0l2.2-2.122A15.746,15.746,0,0,0,14.773,32.4v3a.61.61,0,0,0,.621.6h7.447a.61.61,0,0,0,.62-.6v-3a15.539,15.539,0,0,0,1.475-.5L24.47,30.8a14.6,14.6,0,0,1-1.784.569Zm0,0" transform="translate(0 0)" fill="#3e505b"/>
  </g>
</svg>
