<svg id="Button_Accept_Pressed" xmlns="http://www.w3.org/2000/svg" width="36" height="36" viewBox="0 0 36 36">
  <rect id="Frame" width="36" height="36" fill="none"/>
  <g id="Design" transform="translate(0 5)">
    <path id="Path" d="M31.781,36H4.219A4.223,4.223,0,0,1,0,31.781V4.219A4.223,4.223,0,0,1,4.219,0H31.781A4.223,4.223,0,0,1,36,4.219V31.781A4.223,4.223,0,0,1,31.781,36ZM4.219,2.813A1.408,1.408,0,0,0,2.813,4.219V31.781a1.408,1.408,0,0,0,1.406,1.406H31.781a1.408,1.408,0,0,0,1.406-1.406V4.219a1.408,1.408,0,0,0-1.406-1.406ZM30.3,10.641,28.2,8.765,15.2,23.289,7.649,16.114,5.711,18.152l9.648,9.172Zm0,0" transform="translate(0 -5)" fill="#3e505b"/>
  </g>
</svg>
