<svg id="Button_WBCloudy_Enable" xmlns="http://www.w3.org/2000/svg" width="32" height="32" viewBox="0 0 32 32">
  <rect id="Frame" width="32" height="32" fill="none"/>
  <g id="Design" transform="translate(0 5.334)">
    <path id="Path_1" data-name="Path 1" d="M224.324,52.644c-.41-2.923-3.361-5.19-6.941-5.19a7.453,7.453,0,0,0-5.669,2.445q.222-.007.447-.008c5.241,0,9.738,2.975,11.076,7.119a8.613,8.613,0,0,1,3.985,1.847q.148.125.287.255a3.507,3.507,0,0,0,1.315-2.677C228.824,54.341,226.809,52.644,224.324,52.644Z" transform="translate(-196.824 -47.454)" fill="#edeff0"/>
    <path id="Path_2" data-name="Path 2" d="M24.641,125.546c-.55-3.918-4.505-6.957-9.3-6.957s-8.755,3.039-9.3,6.957C2.7,125.546,0,127.821,0,130.627s2.7,5.081,6.032,5.081H24.641c3.331,0,6.032-2.275,6.032-5.081S27.972,125.546,24.641,125.546Z" transform="translate(0 -114.375)" fill="#edeff0"/>
  </g>
</svg>
