<svg id="Button_WBDayLight_Disable" xmlns="http://www.w3.org/2000/svg" width="32" height="32" viewBox="0 0 32 32">
  <rect id="Frame" width="32" height="32" fill="none"/>
  <g id="Design">
    <circle id="Ellipse" cx="8.986" cy="8.986" r="8.986" transform="translate(7.014 7.014)" fill="#959fa5"/>
    <path id="Path_1" data-name="Path 1" d="M401.231,5.954h1.279a.731.731,0,0,0,.731-.731V.731A.731.731,0,0,0,402.509,0h-1.279a.731.731,0,0,0-.731.731V5.224A.731.731,0,0,0,401.231,5.954Z" transform="translate(-385.87)" fill="#959fa5"/>
    <path id="Path_2" data-name="Path 2" d="M713,401.231v1.279a.731.731,0,0,0,.731.731h4.493a.731.731,0,0,0,.731-.731v-1.279a.731.731,0,0,0-.731-.731h-4.493A.731.731,0,0,0,713,401.231Z" transform="translate(-686.954 -385.87)" fill="#959fa5"/>
    <path id="Path_3" data-name="Path 3" d="M402.509,718.954a.731.731,0,0,0,.731-.731v-4.493a.731.731,0,0,0-.731-.731h-1.279a.731.731,0,0,0-.731.731v4.493a.731.731,0,0,0,.731.731Z" transform="translate(-385.87 -686.954)" fill="#959fa5"/>
    <path id="Path_4" data-name="Path 4" d="M.731,403.24H5.224a.731.731,0,0,0,.731-.731v-1.279a.731.731,0,0,0-.731-.731H.731a.731.731,0,0,0-.731.731v1.279A.731.731,0,0,0,.731,403.24Z" transform="translate(0 -385.87)" fill="#959fa5"/>
    <path id="Path_5" data-name="Path 5" d="M615.339,115.383a.731.731,0,0,0,1.033,0l3.177-3.177a.731.731,0,0,0,0-1.033l-.9-.9a.73.73,0,0,0-1.033,0l-3.177,3.177a.731.731,0,0,0,0,1.033Z" transform="translate(-591.784 -106.035)" fill="#959fa5"/>
    <path id="Path_6" data-name="Path 6" d="M618.644,619.55l.9-.9a.731.731,0,0,0,0-1.033l-3.177-3.177a.731.731,0,0,0-1.033,0l-.9.9a.73.73,0,0,0,0,1.033l3.177,3.177A.731.731,0,0,0,618.644,619.55Z" transform="translate(-591.783 -591.784)" fill="#959fa5"/>
    <path id="Path_7" data-name="Path 7" d="M112.206,619.55l3.177-3.177a.73.73,0,0,0,0-1.033l-.9-.9a.731.731,0,0,0-1.033,0l-3.177,3.177a.73.73,0,0,0,0,1.033l.9.9A.731.731,0,0,0,112.206,619.55Z" transform="translate(-106.035 -591.784)" fill="#959fa5"/>
    <path id="Path_8" data-name="Path 8" d="M113.445,115.383a.731.731,0,0,0,1.033,0l.9-.9a.73.73,0,0,0,0-1.033l-3.177-3.177a.73.73,0,0,0-1.033,0l-.9.9a.731.731,0,0,0,0,1.033Z" transform="translate(-106.034 -106.035)" fill="#959fa5"/>
  </g>
</svg>
