<svg id="Button_FocusFarLarge_Idle" xmlns="http://www.w3.org/2000/svg" width="64" height="28" viewBox="0 0 64 28">
  <rect id="Frame" width="64" height="28" fill="none"/>
  <g id="Design" transform="translate(6369.5 454)">
    <g id="Rectangle" transform="translate(-6369.5 -454)" fill="#0e1011" stroke="#1d1d1f" stroke-width="2">
      <path d="M0,0H54A10,10,0,0,1,64,10v8A10,10,0,0,1,54,28H0a0,0,0,0,1,0,0V0A0,0,0,0,1,0,0Z" stroke="none"/>
      <path d="M2,1H54a9,9,0,0,1,9,9v8a9,9,0,0,1-9,9H2a1,1,0,0,1-1-1V2A1,1,0,0,1,2,1Z" fill="none"/>
    </g>
    <g id="Path_1" data-name="Path 1" transform="translate(-6351.5 -448)" fill="none">
      <path d="M0,0,12,8,0,16V0Z" stroke="none"/>
      <path d="M 1 1.86851692199707 L 1 8 L 1 14.13148307800293 L 10.19722461700439 8 L 1 1.86851692199707 M 0 0 L 12 8 L 0 16 L 0 8 L 0 0 Z" stroke="none" fill="#3498db"/>
    </g>
    <g id="Path_2" data-name="Path 2" transform="translate(-6335.5 -448)" fill="none">
      <path d="M0,0,12,8,0,16V0Z" stroke="none"/>
      <path d="M 1 1.86851692199707 L 1 8 L 1 14.13148307800293 L 10.19722461700439 8 L 1 1.86851692199707 M 0 0 L 12 8 L 0 16 L 0 8 L 0 0 Z" stroke="none" fill="#3498db"/>
    </g>
  </g>
</svg>
