<svg id="Button_MultipleShots_Enable" xmlns="http://www.w3.org/2000/svg" width="36" height="36" viewBox="0 0 36 36">
  <rect id="Frame" width="36" height="36" fill="none"/>
  <g id="Design" transform="translate(0 -43)">
    <path id="Path_1" data-name="Path 1" d="M129.2,149.251h-1.656a.511.511,0,1,0,0,1.008h1.062V165.5H103.039v-.849a.6.6,0,0,0-1.187,0v1.353a.554.554,0,0,0,.593.5H129.2a.554.554,0,0,0,.593-.5V149.755A.554.554,0,0,0,129.2,149.251Z" transform="translate(-93.793 -93.511)" fill="#3498db"/>
    <path id="Path_2" data-name="Path 2" d="M78.867,115.882V99.63a.554.554,0,0,0-.593-.5H76.618a.511.511,0,1,0,0,1.008h1.062v15.244H52.113v-.849a.6.6,0,0,0-1.187,0v1.353a.554.554,0,0,0,.593.5H78.274A.554.554,0,0,0,78.867,115.882Z" transform="translate(-46.897 -46.756)" fill="#3498db"/>
    <path id="Path_3" data-name="Path 3" d="M27.941,65.756V49.5a.554.554,0,0,0-.593-.5H.593A.554.554,0,0,0,0,49.5V65.756a.554.554,0,0,0,.593.5H27.348A.554.554,0,0,0,27.941,65.756Zm-1.187-.5H1.187V50.008H26.755Z" fill="#3498db"/>
  </g>
</svg>
