<svg id="Button_WBShade_Enable" xmlns="http://www.w3.org/2000/svg" width="32" height="32" viewBox="0 0 32 32">
  <rect id="Frame" width="32" height="32" fill="none"/>
  <g id="Design" transform="translate(0 5.334)">
    <path id="Path_1" data-name="Path 1" d="M22.423,95.805,12.015,87.761a.99.99,0,0,0-1.213,0L.394,95.805A1.016,1.016,0,0,0,1,97.624H4.23v10.25a1.007,1.007,0,0,0,1,1.013H8.267v-6.855a1.007,1.007,0,0,1,1-1.013h4.282a1.007,1.007,0,0,1,1,1.013v6.855h3.037a1.007,1.007,0,0,0,1-1.013V97.624h3.23A1.016,1.016,0,0,0,22.423,95.805Z" transform="translate(0 -87.554)" fill="#edeff0"/>
    <path id="Path_2" data-name="Path 2" d="M326.975,274.8l-10.309-7.967a.991.991,0,0,0-1.4.191,1.022,1.022,0,0,0,.189,1.42l10.309,7.967a.991.991,0,0,0,1.4-.191A1.022,1.022,0,0,0,326.975,274.8Z" transform="translate(-295.369 -255.29)" fill="#edeff0"/>
    <path id="Path_3" data-name="Path 3" d="M321.374,338.83l-4.708-3.639a.992.992,0,0,0-1.4.191,1.022,1.022,0,0,0,.189,1.42l4.708,3.639a.991.991,0,0,0,1.4-.191A1.022,1.022,0,0,0,321.374,338.83Z" transform="translate(-295.368 -319.315)" fill="#edeff0"/>
  </g>
</svg>
