<svg id="Button_Add_Idle" xmlns="http://www.w3.org/2000/svg" width="36" height="36" viewBox="0 0 36 36">
  <rect id="Frame" width="36" height="36" fill="none"/>
  <g id="Design">
    <path id="Path_1" data-name="Path 1" d="M29.571,0H6.429A6.436,6.436,0,0,0,0,6.429V29.571A6.436,6.436,0,0,0,6.429,36H29.571A6.436,6.436,0,0,0,36,29.571V6.429A6.436,6.436,0,0,0,29.571,0Zm3.857,29.571a3.857,3.857,0,0,1-3.857,3.857H6.429a3.857,3.857,0,0,1-3.857-3.857V6.429A3.857,3.857,0,0,1,6.429,2.571H29.571a3.857,3.857,0,0,1,3.857,3.857Z" fill="#edeff0"/>
    <path id="Path_2" data-name="Path 2" d="M150.676,142.962h-5.143v-5.143a1.286,1.286,0,1,0-2.571,0v5.143h-5.143a1.286,1.286,0,1,0,0,2.571h5.143v5.143a1.286,1.286,0,1,0,2.571,0v-5.143h5.143a1.286,1.286,0,1,0,0-2.571Z" transform="translate(-126.247 -126.247)" fill="#edeff0"/>
  </g>
</svg>
