<svg id="Button_Share_Idle" xmlns="http://www.w3.org/2000/svg" width="36" height="36" viewBox="0 0 36 36">
  <rect id="Frame" width="36" height="36" transform="translate(0)" fill="none"/>
  <g id="Design">
    <path id="Path" d="M31.386,22.88a6.592,6.592,0,0,0-5.167,2.514L14.983,19.7a6.466,6.466,0,0,0,.253-1.7,6.413,6.413,0,0,0-.3-1.84l11.186-5.671a6.52,6.52,0,1,0-1.347-3.931,6.438,6.438,0,0,0,.254,1.7l-11.234,5.7a6.554,6.554,0,1,0,.1,7.968L25.073,27.6a6.429,6.429,0,0,0-.3,1.845,6.616,6.616,0,1,0,6.615-6.561Z" transform="translate(-2.006)" fill="#edeff0"/>
  </g>
</svg>
