<svg id="Button_WBFlash_Disable" xmlns="http://www.w3.org/2000/svg" width="32" height="32" viewBox="0 0 32 32">
  <rect id="Frame" width="32" height="32" fill="none"/>
  <g id="Design" transform="translate(5.333)">
    <path id="Path" d="M206.95,31.8,218.9,21.509c.49-.42.14-1.137-.552-1.137h-.953c-.649,0-1.015-.644-.611-1.08l6.336-6.848c.4-.437.043-1.08-.611-1.08h-3.185c-.642,0-1.007-.627-.622-1.067l8.093-9.229c.385-.44.019-1.067-.622-1.067h-12.8a.8.8,0,0,0-.7.37l-6.258,10.853c-.257.443.121.964.7.964H210c.576,0,.953.52.7.964l-4.278,7.422c-.257.443.121.964.7.964h2.719c.576,0,.949.513.7.957l-4.83,8.546C205.316,31.715,206.332,32.331,206.95,31.8Z" transform="translate(-205.617)" fill="#959fa5"/>
  </g>
</svg>
