<svg id="Button_Home_Idle" xmlns="http://www.w3.org/2000/svg" width="36" height="36" viewBox="0 0 36 36">
  <rect id="Frame" width="24" height="24" transform="translate(6 6)" fill="none"/>
  <g id="Design" transform="translate(6.001 -21.797)">
    <circle id="Ellipse" cx="18" cy="18" r="18" transform="translate(-6.001 21.797)" fill="#3e505b"/>
    <path id="Path_1" data-name="Path 1" d="M23.744,37.277,12.368,27.933a.57.57,0,0,0-.737,0L.255,37.277a.756.756,0,0,0-.135.978.581.581,0,0,0,.872.151L12,29.364l11.008,9.042a.576.576,0,0,0,.368.135.6.6,0,0,0,.5-.286A.756.756,0,0,0,23.744,37.277Z" fill="#edeff0"/>
    <path id="Path_2" data-name="Path 2" d="M74.536,232.543a.665.665,0,0,0-.624.7v11.135H68.924V238.3a3.139,3.139,0,1,0-6.236,0v6.078H57.7V233.243a.628.628,0,1,0-1.247,0v11.834a.665.665,0,0,0,.624.7h6.236a.658.658,0,0,0,.621-.645c0-.016,0-.034,0-.055V238.3a1.883,1.883,0,1,1,3.742,0v6.778c0,.02,0,.038,0,.054a.658.658,0,0,0,.621.646h6.236a.665.665,0,0,0,.624-.7V233.243A.665.665,0,0,0,74.536,232.543Z" transform="translate(-53.806 -193.979)" fill="#edeff0"/>
  </g>
</svg>
