<svg id="Button_Distance_Disable" xmlns="http://www.w3.org/2000/svg" width="36" height="36" viewBox="0 0 36 36">
  <rect id="Frame" width="36" height="36" fill="none"/>
  <g id="Design" transform="translate(0 -42.14)">
    <path id="Path_1" data-name="Path 1" d="M8.409,68.557a.717.717,0,0,0,.569-.281C9,68.251,10.943,65.7,12.86,62.671c2.625-4.153,3.957-7.222,3.957-9.121A8.409,8.409,0,0,0,0,53.55c0,1.9,1.331,4.968,3.957,9.121,1.918,3.034,3.863,5.58,3.883,5.605A.717.717,0,0,0,8.409,68.557ZM1.434,53.55a6.974,6.974,0,1,1,13.949,0c0,3.019-4.6,9.879-6.974,13.1C6.035,63.429,1.434,56.569,1.434,53.55Z" transform="translate(0 -0.001)" fill="#1d5378"/>
    <path id="Path_2" data-name="Path 2" d="M57.044,97.143A5.041,5.041,0,1,0,52,102.184,5.047,5.047,0,0,0,57.044,97.143Zm-8.647,0A3.607,3.607,0,1,1,52,100.749,3.611,3.611,0,0,1,48.4,97.143Z" transform="translate(-43.594 -43.595)" fill="#1d5378"/>
    <path id="Path_3" data-name="Path 3" d="M80.569,122.82a.717.717,0,0,0-.717-.717,2.893,2.893,0,0,0-2.889,2.889.717.717,0,0,0,1.434,0,1.457,1.457,0,0,1,1.455-1.455A.717.717,0,0,0,80.569,122.82Z" transform="translate(-71.443 -71.444)" fill="#1d5378"/>
    <path id="Path_4" data-name="Path 4" d="M275.9,45.14a8.418,8.418,0,0,0-8.409,8.409c0,1.9,1.331,4.968,3.957,9.121,1.918,3.034,3.863,5.58,3.883,5.605a.717.717,0,0,0,1.139,0c.019-.025,1.965-2.571,3.883-5.605,2.625-4.153,3.957-7.222,3.957-9.121A8.418,8.418,0,0,0,275.9,45.14Zm0,21.5c-2.373-3.217-6.974-10.076-6.974-13.1a6.974,6.974,0,0,1,13.949,0C282.876,56.567,278.275,63.428,275.9,66.645Z" transform="translate(-248.31 0)" fill="#1d5378"/>
    <path id="Path_5" data-name="Path 5" d="M319.5,92.1a5.041,5.041,0,1,0,5.041,5.041A5.046,5.046,0,0,0,319.5,92.1Zm0,8.647a3.607,3.607,0,1,1,3.607-3.607A3.611,3.611,0,0,1,319.5,100.75Z" transform="translate(-291.905 -43.596)" fill="#1d5378"/>
    <path id="Path_6" data-name="Path 6" d="M352.588,388.86a2.438,2.438,0,1,0,2.438,2.438A2.441,2.441,0,0,0,352.588,388.86Zm0,3.442a1,1,0,1,1,1-1A1.005,1.005,0,0,1,352.588,392.3Z" transform="translate(-325.04 -318.601)" fill="#1d5378"/>
    <path id="Path_7" data-name="Path 7" d="M288.8,412.86h-1.936a.717.717,0,1,0,0,1.434H288.8a.717.717,0,1,0,0-1.434Z" transform="translate(-265.629 -340.88)" fill="#1d5378"/>
    <path id="Path_8" data-name="Path 8" d="M95.915,390.581h-8a2.438,2.438,0,1,0,0,1.434h8a.717.717,0,0,0,0-1.434ZM85.588,392.3a1,1,0,1,1,1-1A1.005,1.005,0,0,1,85.588,392.3Z" transform="translate(-77.187 -318.601)" fill="#1d5378"/>
  </g>
</svg>
