<svg id="Button_WBTungsten_Enable" xmlns="http://www.w3.org/2000/svg" width="32" height="32" viewBox="0 0 32 32">
  <rect id="Frame" width="32" height="32" transform="translate(0 0)" fill="none"/>
  <g id="Design">
    <path id="Path_1" data-name="Path 1" d="M356.452,28.12a.7.7,0,0,0-.682.725v1.67a.7.7,0,0,0,.682.725h6.386a.7.7,0,0,0,.682-.725v-1.67a.7.7,0,0,0-.682-.725Z" transform="translate(-343.645 -28.12)" fill="#edeff0"/>
    <path id="Path_2" data-name="Path 2" d="M212.362,164.659a9.7,9.7,0,0,0,4.52,0,8.562,8.562,0,0,0,6.486-10.286c-.6-2.482-2.409-4.033-3.7-6.079a7.894,7.894,0,0,1-.839-1.73,8.436,8.436,0,0,1-.3-1.587.675.675,0,0,0-.654-.634h-6.5a.675.675,0,0,0-.654.634,8.44,8.44,0,0,1-.3,1.587,7.9,7.9,0,0,1-.839,1.73c-1.294,2.047-3.1,3.6-3.7,6.079A8.562,8.562,0,0,0,212.362,164.659Z" transform="translate(-198.623 -140.129)" fill="#edeff0"/>
    <path id="Path_3" data-name="Path 3" d="M433.3,751.335a.7.7,0,0,0,.682-.725v-4.548a.7.7,0,0,0-.682-.725h-1.231a.7.7,0,0,0-.682.725v4.548a.7.7,0,0,0,.682.725Z" transform="translate(-416.688 -719.336)" fill="#edeff0"/>
    <path id="Path_4" data-name="Path 4" d="M675.61,646.176a.653.653,0,0,0-.964,0l-.87.926a.758.758,0,0,0,0,1.025l3.023,3.216a.653.653,0,0,0,.964,0l.87-.926a.758.758,0,0,0,0-1.025Z" transform="translate(-650.619 -623.565)" fill="#edeff0"/>
    <path id="Path_5" data-name="Path 5" d="M113.112,651.344l3.023-3.216a.758.758,0,0,0,0-1.025l-.871-.926a.653.653,0,0,0-.964,0l-3.023,3.216a.758.758,0,0,0,0,1.025l.871.926A.654.654,0,0,0,113.112,651.344Z" transform="translate(-107.292 -623.565)" fill="#edeff0"/>
    <path id="Path_6" data-name="Path 6" d="M778.413,430.506h-4.276a.7.7,0,0,0-.682.725v1.31a.7.7,0,0,0,.682.725h4.276a.7.7,0,0,0,.681-.725v-1.31A.7.7,0,0,0,778.413,430.506Z" transform="translate(-747.094 -415.918)" fill="#edeff0"/>
    <path id="Path_7" data-name="Path 7" d="M4.957,433.265a.7.7,0,0,0,.682-.725v-1.31a.7.7,0,0,0-.682-.725H.682A.7.7,0,0,0,0,431.23v1.31a.7.7,0,0,0,.682.725Z" transform="translate(0 -415.917)" fill="#edeff0"/>
  </g>
</svg>
