<svg id="Button_Delete_Idle" xmlns="http://www.w3.org/2000/svg" width="36" height="36" viewBox="0 0 36 36">
  <rect id="Frame" width="36" height="36" fill="none"/>
  <g id="Design" transform="translate(-47.016)">
    <path id="Path_1" data-name="Path 1" d="M75.251,124.966a1.812,1.812,0,0,0,1.81,1.736H93.974a1.812,1.812,0,0,0,1.81-1.736l1.208-25.5H74.043ZM89.344,105.8a.736.736,0,0,1,.736-.736h1.177a.736.736,0,0,1,.736.736v14.567a.736.736,0,0,1-.736.736H90.079a.736.736,0,0,1-.736-.736Zm-5.15,0a.736.736,0,0,1,.736-.736h1.177a.736.736,0,0,1,.736.736v14.567a.736.736,0,0,1-.736.736H84.929a.736.736,0,0,1-.736-.736V105.8Zm-5.15,0a.736.736,0,0,1,.736-.736h1.177a.736.736,0,0,1,.736.736v14.567a.736.736,0,0,1-.736.736H79.779a.736.736,0,0,1-.736-.736Z" transform="translate(-20.086 -90.702)" fill="#edeff0"/>
    <path id="Path_2" data-name="Path 2" d="M77.711,1.855h-7.8V.379A.379.379,0,0,0,69.529,0H61.335a.379.379,0,0,0-.379.379V1.854h-7.8a1.137,1.137,0,0,0-1.137,1.137V6.563H78.848V2.992A1.137,1.137,0,0,0,77.711,1.855Z" fill="#edeff0"/>
  </g>
</svg>
