<svg id="Button_FocusNearLarge_Pressed" xmlns="http://www.w3.org/2000/svg" width="64" height="28" viewBox="0 0 64 28">
  <rect id="Frame" width="64" height="28" fill="none"/>
  <g id="Design" transform="translate(-152.5 -335)">
    <path id="Rectangle" d="M10,0H64a0,0,0,0,1,0,0V28a0,0,0,0,1,0,0H10A10,10,0,0,1,0,18V10A10,10,0,0,1,10,0Z" transform="translate(152.5 335)" fill="#1d1d1f"/>
    <g id="Path_1" data-name="Path 1" transform="translate(170.5 341)" fill="none">
      <path d="M12,0V16L0,8Z" stroke="none"/>
      <path d="M 11 1.86851692199707 L 1.802775382995605 8 L 11 14.13148307800293 L 11 1.86851692199707 M 12 0 L 12 16 L 0 8 L 12 0 Z" stroke="none" fill="#1d5378"/>
    </g>
    <g id="Path_2" data-name="Path 2" transform="translate(186.5 341)" fill="none">
      <path d="M12,0V16L0,8Z" stroke="none"/>
      <path d="M 11 1.86851692199707 L 1.802775382995605 8 L 11 14.13148307800293 L 11 1.86851692199707 M 12 0 L 12 16 L 0 8 L 12 0 Z" stroke="none" fill="#1d5378"/>
    </g>
  </g>
</svg>
