<svg id="Button_LiveView_Disable" xmlns="http://www.w3.org/2000/svg" width="24" height="24" viewBox="0 0 24 24">
  <rect id="Frame" width="24" height="24" fill="none"/>
  <g id="Design">
    <path id="Path_1" data-name="Path 1" d="M.75,9A.75.75,0,0,1,0,8.25V.75A.75.75,0,0,1,.75,0h7.5a.75.75,0,0,1,0,1.5H1.5V8.25A.75.75,0,0,1,.75,9Z" fill="#3e505b"/>
    <path id="Path_2" data-name="Path 2" d="M328.25,9a.75.75,0,0,1-.75-.75V1.5h-6.75a.75.75,0,1,1,0-1.5h7.5a.75.75,0,0,1,.75.75v7.5A.75.75,0,0,1,328.25,9Z" transform="translate(-305)" fill="#3e505b"/>
    <path id="Path_3" data-name="Path 3" d="M8.25,329H.75a.75.75,0,0,1-.75-.75v-7.5a.75.75,0,1,1,1.5,0v6.75H8.25a.75.75,0,0,1,0,1.5Z" transform="translate(0 -305)" fill="#3e505b"/>
    <path id="Path_4" data-name="Path 4" d="M328.25,329h-7.5a.75.75,0,1,1,0-1.5h6.75v-6.75a.75.75,0,1,1,1.5,0v7.5A.75.75,0,0,1,328.25,329Z" transform="translate(-305 -305)" fill="#3e505b"/>
    <path id="Path_5" data-name="Path 5" d="M254.542,196.784a.75.75,0,0,1-.728-.572,1.481,1.481,0,0,0-1.071-1.071.75.75,0,0,1,.357-1.456,3,3,0,0,1,2.17,2.17.75.75,0,0,1-.55.9A.816.816,0,0,1,254.542,196.784Z" transform="translate(-240.367 -184.589)" fill="#3e505b"/>
    <path id="Path_6" data-name="Path 6" d="M195,231.287a3,3,0,0,1-3-3,2.585,2.585,0,0,1,.15-.9.75.75,0,0,1,1.409.512,1.135,1.135,0,0,0-.058.389,1.5,1.5,0,0,0,1.5,1.5,1.134,1.134,0,0,0,.393-.061.75.75,0,0,1,.507,1.411A2.612,2.612,0,0,1,195,231.287Z" transform="translate(-182.996 -216.287)" fill="#3e505b"/>
    <path id="Path_7" data-name="Path 7" d="M73.009,172.869a9.891,9.891,0,0,1-8.929-5.684.75.75,0,0,1,0-.633,9.764,9.764,0,0,1,3.363-3.948.75.75,0,0,1,.845,1.239,8.276,8.276,0,0,0-2.691,3.025,8.369,8.369,0,0,0,10.331,3.978.75.75,0,1,1,.578,1.384l-.053.02A9.785,9.785,0,0,1,73.009,172.869Z" transform="translate(-61.009 -154.869)" fill="#3e505b"/>
    <path id="Path_8" data-name="Path 8" d="M201.138,137.868a.75.75,0,0,1-.48-1.326A8.213,8.213,0,0,0,202.7,134a8.389,8.389,0,0,0-7.414-4.5,7.768,7.768,0,0,0-2.039.259.751.751,0,0,1-.393-1.449,9.366,9.366,0,0,1,2.431-.31,9.891,9.891,0,0,1,8.93,5.684.75.75,0,0,1,0,.632,9.69,9.69,0,0,1-2.6,3.381A.75.75,0,0,1,201.138,137.868Z" transform="translate(-183.288 -121.998)" fill="#3e505b"/>
    <path id="Path_9" data-name="Path 9" d="M94.231,126.981a.75.75,0,0,1-.531-.219l-13.5-13.5a.751.751,0,1,1,1.062-1.062l13.5,13.5a.75.75,0,0,1-.531,1.281Z" transform="translate(-76.231 -106.731)" fill="#3e505b"/>
  </g>
</svg>
