<svg id="Button_Minus_Idle" xmlns="http://www.w3.org/2000/svg" width="128" height="28" viewBox="0 0 128 28">
  <rect id="Frame" width="128" height="28" fill="none"/>
  <g id="Design">
    <g id="Rectangle_1" data-name="Rectangle 1" fill="#0e1011" stroke="#1d1d1f" stroke-width="2">
      <path d="M10,0H128a0,0,0,0,1,0,0V28a0,0,0,0,1,0,0H10A10,10,0,0,1,0,18V10A10,10,0,0,1,10,0Z" stroke="none"/>
      <path d="M10,1H126a1,1,0,0,1,1,1V26a1,1,0,0,1-1,1H10a9,9,0,0,1-9-9V10A9,9,0,0,1,10,1Z" fill="none"/>
    </g>
    <rect id="Rectangle_2" data-name="Rectangle 2" width="16" height="2" transform="translate(56 13)" fill="#3498db"/>
  </g>
</svg>
