<svg id="Button_LiveView_Enable" xmlns="http://www.w3.org/2000/svg" width="24" height="24" viewBox="0 0 24 24">
  <rect id="Frame" width="24" height="24" fill="none"/>
  <g id="Design">
    <path id="Path_1" data-name="Path 1" d="M.75,9A.75.75,0,0,1,0,8.25V.75A.75.75,0,0,1,.75,0h7.5a.75.75,0,0,1,0,1.5H1.5V8.25A.75.75,0,0,1,.75,9Z" fill="#959fa5"/>
    <path id="Path_2" data-name="Path 2" d="M328.25,9a.75.75,0,0,1-.75-.75V1.5h-6.75a.75.75,0,1,1,0-1.5h7.5a.75.75,0,0,1,.75.75v7.5A.75.75,0,0,1,328.25,9Z" transform="translate(-305)" fill="#959fa5"/>
    <path id="Path_3" data-name="Path 3" d="M8.25,329H.75a.75.75,0,0,1-.75-.75v-7.5a.75.75,0,1,1,1.5,0v6.75H8.25a.75.75,0,0,1,0,1.5Z" transform="translate(0 -305)" fill="#959fa5"/>
    <path id="Path_4" data-name="Path 4" d="M328.25,329h-7.5a.75.75,0,1,1,0-1.5h6.75v-6.75a.75.75,0,1,1,1.5,0v7.5A.75.75,0,0,1,328.25,329Z" transform="translate(-305 -305)" fill="#959fa5"/>
    <path id="Path_5" data-name="Path 5" d="M195,198a3,3,0,1,1,3-3A3,3,0,0,1,195,198Zm0-4.5a1.5,1.5,0,1,0,1.5,1.5A1.5,1.5,0,0,0,195,193.5Z" transform="translate(-183 -183)" fill="#959fa5"/>
    <path id="Path_6" data-name="Path 6" d="M72.995,139.965a9.9,9.9,0,0,1-8.929-5.682.75.75,0,0,1,0-.636,9.858,9.858,0,0,1,17.859,0,.75.75,0,0,1,0,.636A9.9,9.9,0,0,1,72.995,139.965Zm-7.413-6a8.356,8.356,0,0,0,14.826,0,8.357,8.357,0,0,0-14.826,0Z" transform="translate(-60.995 -121.965)" fill="#959fa5"/>
    <circle id="Ellipse" cx="3" cy="3" r="3" transform="translate(9 9)" fill="#959fa5"/>
  </g>
</svg>
