<svg id="Button_Gallery_Pressed" xmlns="http://www.w3.org/2000/svg" width="36" height="36" viewBox="0 0 36 36">
  <rect id="Frame" width="36" height="36" fill="none"/>
  <g id="Design">
    <path id="Path_1" data-name="Path 1" d="M32.625,0H3.375A3.375,3.375,0,0,0,0,3.375v29.25A3.375,3.375,0,0,0,3.375,36h29.25A3.375,3.375,0,0,0,36,32.625V3.375A3.375,3.375,0,0,0,32.625,0ZM33.75,32.625a1.125,1.125,0,0,1-1.125,1.125H3.375A1.125,1.125,0,0,1,2.25,32.625V3.375A1.125,1.125,0,0,1,3.375,2.25h29.25A1.125,1.125,0,0,1,33.75,3.375Z" fill="#3e505b"/>
    <path id="Path_2" data-name="Path 2" d="M99.008,242.713a1.125,1.125,0,0,0-1.586,0L94.834,245.3l-4.826-4.826a1.125,1.125,0,0,0-1.586,0l-7.875,7.875a1.125,1.125,0,0,0,.787,1.913h22.5a1.125,1.125,0,0,0,.8-1.924Z" transform="translate(-74.584 -223.262)" fill="#3e505b"/>
    <circle id="Ellipse" cx="3.375" cy="3.375" r="3.375" transform="translate(18 9)" fill="#3e505b"/>
  </g>
</svg>
