<svg id="Checkbox_Disable" xmlns="http://www.w3.org/2000/svg" width="18" height="18" viewBox="0 0 18 18">
  <rect id="Frame" width="18" height="18" fill="none"/>
  <g id="Checkbox">
    <g id="Path" fill="none">
      <path d="M9,0a9,9,0,1,0,9,9A9.01,9.01,0,0,0,9,0Z" stroke="none"/>
      <path d="M 9 1 C 4.588789939880371 1 1 4.588789939880371 1 9 C 1 13.41121006011963 4.588789939880371 17 9 17 C 13.41121006011963 17 17 13.41121006011963 17 9 C 17 4.588789939880371 13.41121006011963 1 9 1 M 9 0 C 13.96280002593994 0 18 4.037199974060059 18 9 C 18 13.96280002593994 13.96280002593994 18 9 18 C 4.037199974060059 18 0 13.96280002593994 0 9 C 0 4.037199974060059 4.037199974060059 0 9 0 Z" stroke="none" fill="#1d5378"/>
    </g>
  </g>
</svg>
