<svg id="Icon_Notification" xmlns="http://www.w3.org/2000/svg" width="24" height="24" viewBox="0 0 24 24">
  <rect id="Frame" width="24" height="24" fill="none"/>
  <g id="Design" transform="translate(0 -15.006)">
    <path id="Path_1" data-name="Path 1" d="M105.568,34.569a6.431,6.431,0,0,0-.7-2.912,6.427,6.427,0,0,1-.7-2.912V27.006c0-3.728-1.954-6.882-4.562-7.9a2.005,2.005,0,0,0,.3-1.037,2.11,2.11,0,0,0-4.219,0,2.005,2.005,0,0,0,.3,1.037c-2.608,1.019-4.562,4.173-4.562,7.9v1.738a6.427,6.427,0,0,1-.7,2.912,6.431,6.431,0,0,0-.7,2.912.7.7,0,0,0,.7.688h14.156A.7.7,0,0,0,105.568,34.569Zm-8.484-16.5a.7.7,0,1,1,.7.688A.7.7,0,0,1,97.084,18.069Z" transform="translate(-85.787)" fill="#3e505b"/>
    <path id="Path_2" data-name="Path 2" d="M420.288,51.768A.691.691,0,0,0,420.9,51a14.622,14.622,0,0,0-3.223-7.338.717.717,0,0,0-.989-.106.678.678,0,0,0-.108.967,13.247,13.247,0,0,1,2.925,6.652A.7.7,0,0,0,420.288,51.768Z" transform="translate(-396.903 -26.142)" fill="#3e505b"/>
    <path id="Path_3" data-name="Path 3" d="M.614,51.766a.7.7,0,0,0,.787-.595,13.247,13.247,0,0,1,2.925-6.652.678.678,0,0,0-.108-.967.717.717,0,0,0-.989.106A14.623,14.623,0,0,0,.005,51a.691.691,0,0,0,.608.769Z" transform="translate(0 -26.14)" fill="#3e505b"/>
    <path id="Path_4" data-name="Path 4" d="M374.4,89.477a.69.69,0,0,0,.586-.786,11.938,11.938,0,0,0-2.492-5.5.714.714,0,0,0-.987-.118.678.678,0,0,0-.121.965,10.558,10.558,0,0,1,2.211,4.865A.7.7,0,0,0,374.4,89.477Z" transform="translate(-353.834 -63.854)" fill="#3e505b"/>
    <path id="Path_5" data-name="Path 5" d="M64.091,83.066a.713.713,0,0,0-.987.118,11.938,11.938,0,0,0-2.492,5.5.69.69,0,0,0,.586.786A.7.7,0,0,0,62,88.9a10.559,10.559,0,0,1,2.211-4.865A.678.678,0,0,0,64.091,83.066Z" transform="translate(-57.762 -63.847)" fill="#3e505b"/>
    <path id="Path_6" data-name="Path 6" d="M217.729,466.006h-3.96a2.113,2.113,0,0,0,3.96,0Z" transform="translate(-203.749 -429.375)" fill="#3e505b"/>
  </g>
</svg>
