<svg id="Icon_StorageSDCard" xmlns="http://www.w3.org/2000/svg" width="48" height="48" viewBox="0 0 48 48">
  <rect id="Frame" width="48" height="48" fill="none"/>
  <g id="Design" transform="translate(5.335)">
    <rect id="Rectangle" width="24" height="24" rx="5" transform="translate(6.666 18.667)" fill="#3498db"/>
    <path id="Path_1" data-name="Path 1" d="M101.313,48H89.124a.977.977,0,0,1-1-.956v-.478h-8.97v.478a.977.977,0,0,1-1,.956H65.973a.977.977,0,0,1-1-.956V17.88a.977.977,0,0,1,1-.956H67V10.8H65.973a.977.977,0,0,1-1-.956V.956a.977.977,0,0,1,1-.956h27.02a1.019,1.019,0,0,1,.7.28l8.32,7.982a.937.937,0,0,1,.292.676v4.544a.977.977,0,0,1-1,.956h-.527v2.486h.527a.977.977,0,0,1,1,.956V47.044A.977.977,0,0,1,101.313,48ZM90.121,46.088h10.2V18.837h-.527a.977.977,0,0,1-1-.956v-4.4a.977.977,0,0,1,1-.956h.527V9.334L92.58,1.912H66.969v6.98H68a.977.977,0,0,1,1,.956V17.88a.977.977,0,0,1-1,.956H66.969V46.088h10.2v-.478a.977.977,0,0,1,1-.956H89.124a.977.977,0,0,1,1,.956v.478Z" transform="translate(-64.976)" fill="#3498db"/>
    <path id="Path_2" data-name="Path 2" d="M310.552,37.345h-1.778c-.982,0-1.778-.6-1.778-1.333s.8-1.333,1.778-1.333h1.778c.982,0,1.778.6,1.778,1.333S311.533,37.345,310.552,37.345Z" transform="translate(-282.997 -29.345)" fill="#3498db"/>
    <path id="Path_3" data-name="Path 3" d="M115.092,37.345h-14.28c-.475,0-.86-.6-.86-1.333s.385-1.333.86-1.333h14.28c.475,0,.86.6.86,1.333S115.567,37.345,115.092,37.345Z" transform="translate(-94.62 -29.345)" fill="#3498db"/>
  </g>
</svg>
