<svg id="Icon_Timelapse" xmlns="http://www.w3.org/2000/svg" width="60" height="60" viewBox="0 0 60 60">
  <rect id="Rectangle" width="60" height="60" fill="none"/>
  <g id="Design" transform="translate(5 5)">
    <path id="Path_1" data-name="Path 1" d="M21.281,47.67a20.647,20.647,0,0,1-5.156-1.65c-.019-.01-.037-.022-.057-.031-.385-.183-.77-.378-1.143-.583l-.006,0A21.182,21.182,0,0,1,7.853,14.7a20.963,20.963,0,0,1,5.155-5.166l.072-.051A20.885,20.885,0,0,1,36.628,9.3l-1.57,2.286c-.437.636-.168,1.1.6,1.03L42.476,12a1.131,1.131,0,0,0,1.017-1.481L41.661,3.868c-.205-.745-.73-.835-1.167-.2L38.92,5.96a24.678,24.678,0,0,0-18.19-3.9q-.965.168-1.9.409l-.013,0-.072.02A24.777,24.777,0,0,0,5,11.775c-.029.035-.059.068-.086.106-.114.155-.227.313-.338.471-.181.259-.36.525-.531.791-.021.032-.038.065-.056.1A25.1,25.1,0,0,0,.026,27.963c0,.017,0,.034,0,.052.023.508.063,1.023.117,1.53,0,.033.01.064.016.1.056.51.127,1.021.215,1.531A25.049,25.049,0,0,0,7.368,44.723l.026.027.009.008a25.371,25.371,0,0,0,3.2,2.7,24.687,24.687,0,0,0,9.967,4.2,2.024,2.024,0,0,0,.709-3.986Z" transform="translate(0 -1.688)" fill="#3498db" stroke="#3498db" stroke-width="0.5"/>
    <path id="Path_2" data-name="Path 2" d="M413.043,140.2a2.017,2.017,0,0,0,.749,1.017,2,2,0,0,0,1.791.268,2.029,2.029,0,0,0,1.276-2.558c-.159-.484-.335-.969-.523-1.441a2.005,2.005,0,0,0-2.613-1.128,2.029,2.029,0,0,0-1.12,2.632C412.762,139.384,412.91,139.792,413.043,140.2Z" transform="translate(-368.128 -121.646)" fill="#3498db" stroke="#3498db" stroke-width="0.5"/>
    <path id="Path_3" data-name="Path 3" d="M431.653,209.257a2.01,2.01,0,1,0-4.017.159c.017.427.021.861.011,1.287a2.027,2.027,0,0,0,.854,1.7,1.994,1.994,0,0,0,1.112.368,2.016,2.016,0,0,0,2.053-1.98C431.677,210.283,431.673,209.766,431.653,209.257Z" transform="translate(-381.672 -185.049)" fill="#3498db" stroke="#3498db" stroke-width="0.5"/>
    <path id="Path_4" data-name="Path 4" d="M416.823,279.445a2.007,2.007,0,0,0-2.519,1.326c-.127.408-.268.817-.42,1.218a2.034,2.034,0,0,0,.719,2.375,2,2,0,0,0,3.037-.933c.18-.477.348-.964.5-1.449A2.028,2.028,0,0,0,416.823,279.445Z" transform="translate(-369.281 -249.29)" fill="#3498db" stroke="#3498db" stroke-width="0.5"/>
    <path id="Path_5" data-name="Path 5" d="M380.849,344.474a2,2,0,0,0-2.815.4c-.255.343-.524.681-.8,1.007a2.036,2.036,0,0,0,.227,2.854c.048.041.1.079.147.114a2,2,0,0,0,2.686-.343c.329-.389.649-.793.954-1.2A2.035,2.035,0,0,0,380.849,344.474Z" transform="translate(-336.262 -307)" fill="#3498db" stroke="#3498db" stroke-width="0.5"/>
    <path id="Path_6" data-name="Path 6" d="M322.962,394.247c-.355.236-.721.464-1.089.678a2.033,2.033,0,0,0-.155,3.409,2,2,0,0,0,2.163.1c.438-.255.874-.526,1.3-.807a2.034,2.034,0,0,0,.569-2.805A2,2,0,0,0,322.962,394.247Z" transform="translate(-286.38 -351.447)" fill="#3498db" stroke="#3498db" stroke-width="0.5"/>
    <path id="Path_7" data-name="Path 7" d="M255.561,423.216c-.412.1-.833.2-1.25.273a2.03,2.03,0,0,0-.791,3.646,1.992,1.992,0,0,0,1.524.336c.5-.093,1-.2,1.489-.326a2.024,2.024,0,0,0-.971-3.929Z" transform="translate(-225.51 -377.525)" fill="#3498db" stroke="#3498db" stroke-width="0.5"/>
    <path id="Path_8" data-name="Path 8" d="M207.614,83.2a1.633,1.633,0,0,0-1.627,1.638v16.321l14.818,7.716a1.607,1.607,0,0,0,.745.183A1.625,1.625,0,0,0,223,108.17a1.643,1.643,0,0,0-.7-2.207l-13.06-6.8V84.836A1.632,1.632,0,0,0,207.614,83.2Z" transform="translate(-183.847 -74.373)" fill="#3498db" stroke="#3498db" stroke-width="0.5"/>
  </g>
</svg>
