<svg xmlns="http://www.w3.org/2000/svg" width="61" height="60" viewBox="0 0 61 60">
  <g id="Icon_Camera" transform="translate(0.5)">
    <rect id="Rectangle" width="60" height="60" fill="none"/>
    <g id="Design" transform="translate(0 -36.75)">
      <path id="Path_1" data-name="Path 1" d="M59.114,55.345a59.421,59.421,0,0,0-15.6-4.96L43.145,48.8a9.044,9.044,0,0,0-8.833-7.051H25.688A9.052,9.052,0,0,0,16.855,48.8l-.369,1.583a58.874,58.874,0,0,0-15.6,4.96A1.666,1.666,0,0,0,0,56.817V76.485a14.276,14.276,0,0,0,14.222,14.3,1.67,1.67,0,0,0,0-3.34,10.943,10.943,0,0,1-10.9-10.96V57.868a61.841,61.841,0,0,1,14.825-4.391,1.664,1.664,0,0,0,1.329-1.262l.615-2.66a5.735,5.735,0,0,1,5.6-4.466h8.624a5.732,5.732,0,0,1,5.6,4.466l.615,2.66a1.647,1.647,0,0,0,1.329,1.262,62.44,62.44,0,0,1,14.825,4.391V76.485a10.943,10.943,0,0,1-10.9,10.96,1.67,1.67,0,0,0,0,3.34A14.276,14.276,0,0,0,60,76.485V56.817A1.643,1.643,0,0,0,59.114,55.345Z" transform="translate(0)" fill="#3498db" stroke="#3498db" stroke-width="1"/>
      <path id="Path_2" data-name="Path 2" d="M32.3,89.2a1.511,1.511,0,0,0,.517-.087c1.747-.581,3.58-1.1,5.45-1.546a1.665,1.665,0,0,0-.763-3.241c-1.956.47-3.888,1.014-5.733,1.62a1.67,1.67,0,0,0-1.058,2.1A1.7,1.7,0,0,0,32.3,89.2Z" transform="translate(-26.861 -37.274)" fill="#3498db" stroke="#3498db" stroke-width="1"/>
      <path id="Path_3" data-name="Path 3" d="M107.618,135.05a19.23,19.23,0,1,0,19.118,19.236A19.191,19.191,0,0,0,107.618,135.05Zm0,35.119a15.89,15.89,0,1,1,15.8-15.9A15.858,15.858,0,0,1,107.618,170.169Z" transform="translate(-77.612 -81.759)" fill="#3498db" stroke="#3498db" stroke-width="1"/>
    </g>
  </g>
</svg>
