<svg id="Icon_HighSpeed" xmlns="http://www.w3.org/2000/svg" width="60" height="60" viewBox="0 0 60 60">
  <rect id="Rectangle" width="60" height="60" fill="none"/>
  <g id="Design" transform="translate(-15 -9.995)">
    <path id="Path_1" data-name="Path 1" d="M162.9,128.359a30.02,30.02,0,0,0-34.9,29.6v7.5a2.5,2.5,0,0,0,2.5,2.5h20v-5H133v-5a25.014,25.014,0,0,1,29.117-24.668A25.561,25.561,0,0,1,183,158.738v4.224H165.5v5h20a2.5,2.5,0,0,0,2.5-2.5v-6.724A30.6,30.6,0,0,0,162.9,128.359Z" transform="translate(-113 -112.964)" fill="#3498db"/>
    <path id="Path_2" data-name="Path 2" d="M219.327,205.124l-10-10-3.535,3.534,9.267,9.266v11.463h5v-12.5A2.5,2.5,0,0,0,219.327,205.124Z" transform="translate(-172.56 -164.392)" fill="#3498db"/>
    <rect id="Rectangle_1" data-name="Rectangle 1" width="5" height="4.999" transform="translate(22.5 59.996)" fill="#3498db"/>
    <rect id="Rectangle_2" data-name="Rectangle 2" width="5" height="4.999" transform="translate(32.5 59.996)" fill="#3498db"/>
    <rect id="Rectangle_3" data-name="Rectangle 3" width="19.999" height="4.999" transform="translate(47.5 59.996)" fill="#3498db"/>
  </g>
</svg>
