<svg id="Icon_File" xmlns="http://www.w3.org/2000/svg" width="60" height="60" viewBox="0 0 60 60">
  <rect id="Rectangle" width="60" height="60" fill="none"/>
  <g id="Design" transform="translate(-95.5 -61)">
    <path id="Path" d="M28.1,37.988a1.965,1.965,0,1,1,1.965,1.953A1.959,1.959,0,0,1,28.1,37.988ZM45,34.375V45.117A4.9,4.9,0,0,1,40.087,50H24.367a4.9,4.9,0,0,1-4.913-4.883V34.375a4.9,4.9,0,0,1,4.913-4.883H40.087A4.9,4.9,0,0,1,45,34.375Zm-21.616,0V45.1l1.671-1.661a2.96,2.96,0,0,1,4.168,0l1.15,1.143,3.343-3.259a2.96,2.96,0,0,1,4.149.021l3.2,3.187V34.375a.98.98,0,0,0-.983-.977H24.367a.98.98,0,0,0-.983.977ZM9.727,16.5A6.865,6.865,0,0,0,16.6,9.668a1.965,1.965,0,0,0-3.93,0A2.942,2.942,0,0,1,9.727,12.6H4.267a3.725,3.725,0,0,1,.751-1.08l6.489-6.507a3.791,3.791,0,0,1,2.667-1.105H32.02a3.923,3.923,0,0,1,3.93,3.906v15.82a1.965,1.965,0,0,0,3.93,0V7.812A7.845,7.845,0,0,0,32.02,0H14.175A7.76,7.76,0,0,0,8.716,2.261L2.227,8.768A7.57,7.57,0,0,0,0,14.146V42.188A7.845,7.845,0,0,0,7.86,50h5.7a1.953,1.953,0,1,0,0-3.906H7.86a3.923,3.923,0,0,1-3.93-3.906V16.5Zm0,0" transform="translate(103 66)" fill="#3498db" stroke="#3498db" stroke-width="0.5"/>
  </g>
</svg>
