<svg xmlns="http://www.w3.org/2000/svg" width="62.5" height="60" viewBox="0 0 62.5 60">
  <g id="Icon_Flash" transform="translate(1.25)">
    <rect id="Rectangle" width="60" height="60" fill="none"/>
    <g id="Design" transform="translate(-2.5 -65.435)">
      <path id="Path_1" data-name="Path 1" d="M157.608,107.843H142.9l6.245-15.367H133.776l-4.256,11.443,1.821.871,3.746-10.072h10.975l-6.245,15.367h13.6l-17.222,23.683,3.242-16.192h-12.85l1.976-5.315-1.821-.871-3.134,8.427h13.353l-4.537,22.66Z" transform="translate(-107.108 -22.041)" fill="#3498db" stroke="#3498db" stroke-linejoin="round" stroke-width="2.5"/>
      <path id="Path_2" data-name="Path 2" d="M1.121.039,10.889,0A1.043,1.043,0,0,1,12,.975a1.067,1.067,0,0,1-1.121.985L1.111,2A1.043,1.043,0,0,1,0,1.023,1.067,1.067,0,0,1,1.121.039Z" transform="translate(9.5 116.921) rotate(-45)" fill="#3498db" stroke="#3498db" stroke-width="2.5"/>
      <path id="Path_3" data-name="Path 3" d="M.934,0H9.066A.969.969,0,0,1,10,1a.969.969,0,0,1-.934,1H.934A.969.969,0,0,1,0,1,.969.969,0,0,1,.934,0Z" transform="translate(2.5 93.935)" fill="#3498db" stroke="#3498db" stroke-width="2.5"/>
      <path id="Path_4" data-name="Path 4" d="M1.023,0A1.043,1.043,0,0,1,2,1.111L1.96,10.879A1.067,1.067,0,0,1,.975,12,1.043,1.043,0,0,1,0,10.889L.039,1.121A1.067,1.067,0,0,1,1.023,0Z" transform="translate(8.5 72.849) rotate(-45)" fill="#3498db" stroke="#3498db" stroke-width="2.5"/>
      <path id="Path_5" data-name="Path 5" d="M1.121.039,10.889,0A1.043,1.043,0,0,1,12,.975a1.067,1.067,0,0,1-1.121.985L1.111,2A1.043,1.043,0,0,1,0,1.023,1.067,1.067,0,0,1,1.121.039Z" transform="translate(49.5 79.921) rotate(-45)" fill="#3498db" stroke="#3498db" stroke-width="2.5"/>
      <path id="Path_6" data-name="Path 6" d="M1.121,0h9.758A1.066,1.066,0,0,1,12,1a1.066,1.066,0,0,1-1.121,1H1.121A1.066,1.066,0,0,1,0,1,1.066,1.066,0,0,1,1.121,0Z" transform="translate(50.5 93.935)" fill="#3498db" stroke="#3498db" stroke-width="2.5"/>
      <path id="Path_7" data-name="Path 7" d="M1,0A.988.988,0,0,1,2,.993V1A1.01,1.01,0,0,1,1,2a.988.988,0,0,1-1-.993V1A1.01,1.01,0,0,1,1,0Z" transform="translate(55.5 116.849) rotate(-45)" fill="#3498db" stroke="#3498db" stroke-width="2.5"/>
      <path id="Path_8" data-name="Path 8" d="M1.014,0A.958.958,0,0,1,2,.941L1.98,5.05A.98.98,0,0,1,.985,6,.958.958,0,0,1,0,5.058L.019.95A.98.98,0,0,1,1.014,0Z" transform="translate(49.5 109.849) rotate(-45)" fill="#3498db" stroke="#3498db" stroke-width="2.5"/>
    </g>
  </g>
</svg>
